<?xml version="1.0" encoding="UTF-8"?>
<svg width="16px" height="12px" viewBox="0 0 16 12" version="1.1" xmlns="http://www.w3.org/2000/svg" xmlns:xlink="http://www.w3.org/1999/xlink">
    <!-- Generator: Sketch 56 (81588) - https://sketch.com -->
    <title>Pages / Dark Mode</title>
    <desc>Created with Sketch.</desc>
    <g id="Pages-/-Dark-Mode" stroke="none" stroke-width="1" fill="none" fill-rule="evenodd">
        <g id="Pages-/-Base">
            <path d="M3.6409713,1 L12.3590287,1 C12.5819084,1 12.6627299,1.0232064 12.7442114,1.06678318 C12.8256929,1.11035995 12.8896401,1.17430709 12.9332168,1.25578857 C12.9767936,1.33727006 13,1.41809162 13,1.6409713 L13,2 L3,2 L3,1.6409713 C3,1.41809162 3.0232064,1.33727006 3.06678318,1.25578857 C3.11035995,1.17430709 3.17430709,1.11035995 3.25578857,1.06678318 C3.33727006,1.0232064 3.41809162,1 3.6409713,1 Z" id="Page-1" fill="#37474F"></path>
            <path d="M2.6409713,2 L13.3590287,2 C13.5819084,2 13.6627299,2.0232064 13.7442114,2.06678318 C13.8256929,2.11035995 13.8896401,2.17430709 13.9332168,2.25578857 C13.9767936,2.33727006 14,2.41809162 14,2.6409713 L14,3 L2,3 L2,2.6409713 C2,2.41809162 2.0232064,2.33727006 2.06678318,2.25578857 C2.11035995,2.17430709 2.17430709,2.11035995 2.25578857,2.06678318 C2.33727006,2.0232064 2.41809162,2 2.6409713,2 Z" id="Page-2" fill="#455A64"></path>
            <path d="M1.6409713,3 L14.3590287,3 C14.5819084,3 14.6627299,3.0232064 14.7442114,3.06678318 C14.8256929,3.11035995 14.8896401,3.17430709 14.9332168,3.25578857 C14.9767936,3.33727006 15,3.41809162 15,3.6409713 L15,10.3590287 C15,10.5819084 14.9767936,10.6627299 14.9332168,10.7442114 C14.8896401,10.8256929 14.8256929,10.8896401 14.7442114,10.9332168 C14.6627299,10.9767936 14.5819084,11 14.3590287,11 L1.6409713,11 C1.41809162,11 1.33727006,10.9767936 1.25578857,10.9332168 C1.17430709,10.8896401 1.11035995,10.8256929 1.06678318,10.7442114 C1.0232064,10.6627299 1,10.5819084 1,10.3590287 L1,3.6409713 C1,3.41809162 1.0232064,3.33727006 1.06678318,3.25578857 C1.11035995,3.17430709 1.17430709,3.11035995 1.25578857,3.06678318 C1.33727006,3.0232064 1.41809162,3 1.6409713,3 Z" id="Page-3" fill="#546E7A"></path>
            <path d="M6.5,4 L9.5,4 C9.77614237,4 10,4.22385763 10,4.5 C10,4.77614237 9.77614237,5 9.5,5 L6.5,5 C6.22385763,5 6,4.77614237 6,4.5 C6,4.22385763 6.22385763,4 6.5,4 Z" id="Title" fill="#EDEDED"></path>
            <path d="M2.5,6 L12.5,6 C12.7761424,6 13,6.22385763 13,6.5 C13,6.77614237 12.7761424,7 12.5,7 L2.5,7 C2.22385763,7 2,6.77614237 2,6.5 C2,6.22385763 2.22385763,6 2.5,6 Z M2.5,8 L7.5,8 C7.77614237,8 8,8.22385763 8,8.5 C8,8.77614237 7.77614237,9 7.5,9 L2.5,9 C2.22385763,9 2,8.77614237 2,8.5 C2,8.22385763 2.22385763,8 2.5,8 Z" id="Body-Text" fill-opacity="0.5" fill="#EDEDED"></path>
            <path d="M14.1464466,8.64644661 L13.25,7.75 C13.1119288,7.61192881 12.8880712,7.61192881 12.75,7.75 C12.6119288,7.88807119 12.6119288,8.11192881 12.75,8.25 L13.5,9 L12.75,9.75 C12.6119288,9.88807119 12.6119288,10.1119288 12.75,10.25 C12.8880712,10.3880712 13.1119288,10.3880712 13.25,10.25 L14.1464466,9.35355339 C14.3417088,9.15829124 14.3417088,8.84170876 14.1464466,8.64644661 Z" id="Path" fill-opacity="0.75" fill="#EDEDED"></path>
        </g>
    </g>
</svg>