<?xml version="1.0" encoding="UTF-8"?>
<svg width="16px" height="12px" viewBox="0 0 16 12" version="1.1" xmlns="http://www.w3.org/2000/svg" xmlns:xlink="http://www.w3.org/1999/xlink">
    <!-- Generator: Sketch 56 (81588) - https://sketch.com -->
    <title>All-In-One / Light Mode</title>
    <desc>Created with Sketch.</desc>
    <g id="All-In-One-/-Light-Mode" stroke="none" stroke-width="1" fill="none" fill-rule="evenodd">
        <g id="All-In-One-/-Base">
            <path d="M2.6409713,1 L13.3590287,1 C13.5819084,1 13.6627299,1.0232064 13.7442114,1.06678318 C13.8256929,1.11035995 13.8896401,1.17430709 13.9332168,1.25578857 C13.9767936,1.33727006 14,1.41809162 14,1.6409713 L14,14.3590287 C14,14.5819084 13.9767936,14.6627299 13.9332168,14.7442114 C13.8896401,14.8256929 13.8256929,14.8896401 13.7442114,14.9332168 C13.6627299,14.9767936 13.5819084,15 13.3590287,15 L2.6409713,15 C2.41809162,15 2.33727006,14.9767936 2.25578857,14.9332168 C2.17430709,14.8896401 2.11035995,14.8256929 2.06678318,14.7442114 C2.0232064,14.6627299 2,14.5819084 2,14.3590287 L2,1.6409713 C2,1.41809162 2.0232064,1.33727006 2.06678318,1.25578857 C2.11035995,1.17430709 2.17430709,1.11035995 2.25578857,1.06678318 C2.33727006,1.0232064 2.41809162,1 2.6409713,1 Z" id="Page" fill="#B0BEC5"></path>
            <path d="M6.5,2 L9.5,2 C9.77614237,2 10,2.22385763 10,2.5 C10,2.77614237 9.77614237,3 9.5,3 L6.5,3 C6.22385763,3 6,2.77614237 6,2.5 C6,2.22385763 6.22385763,2 6.5,2 Z" id="Title" fill="#212121"></path>
            <path d="M5.5,8 L6.5,8 C6.77614237,8 7,8.22385763 7,8.5 C7,8.77614237 6.77614237,9 6.5,9 L5.5,9 C5.22385763,9 5,8.77614237 5,8.5 C5,8.22385763 5.22385763,8 5.5,8 Z M8.5,8 L10.5,8 C10.7761424,8 11,8.22385763 11,8.5 C11,8.77614237 10.7761424,9 10.5,9 L8.5,9 C8.22385763,9 8,8.77614237 8,8.5 C8,8.22385763 8.22385763,8 8.5,8 Z" id="Combined-Shape" fill="#212121"></path>
            <path d="M3.5,4 L12.5,4 C12.7761424,4 13,4.22385763 13,4.5 C13,4.77614237 12.7761424,5 12.5,5 L3.5,5 C3.22385763,5 3,4.77614237 3,4.5 C3,4.22385763 3.22385763,4 3.5,4 Z M3.5,6 L9.5,6 C9.77614237,6 10,6.22385763 10,6.5 C10,6.77614237 9.77614237,7 9.5,7 L3.5,7 C3.22385763,7 3,6.77614237 3,6.5 C3,6.22385763 3.22385763,6 3.5,6 Z" id="Body-Text" fill-opacity="0.5" fill="#212121"></path>
            <g id="Code-Example-/-Light-Mode" transform="translate(4.000000, 10.000000)">
                <g id="Code-Example-/-Base">
                    <g id="Code" stroke-width="1"></g>
                    <path d="M0.5,0 L4,0 L4,0.5 L0,0.5 C-3.38176876e-17,0.223857625 0.223857625,5.07265313e-17 0.5,0 Z" id="Good-Heading" fill="#44A248"></path>
                    <path d="M4,0 L7.5,0 C7.77614237,-5.07265313e-17 8,0.223857625 8,0.5 L8,0.5 L4,0.5 L4,0 Z" id="Bad-Heading" fill="#E53734"></path>
                    <path d="M0,0.5 L8,0.5 L8,3.3590287 C8,3.58190838 7.9767936,3.66272994 7.93321682,3.74421143 C7.88964005,3.82569291 7.82569291,3.88964005 7.74421143,3.93321682 C7.66272994,3.9767936 7.58190838,4 7.3590287,4 L0.6409713,4 C0.418091615,4 0.337270056,3.9767936 0.255788574,3.93321682 C0.174307093,3.88964005 0.110359949,3.82569291 0.0667831759,3.74421143 C0.0232064028,3.66272994 1.00308841e-17,3.58190838 -1.72640051e-17,3.3590287 L0,0.5 Z" id="Code-Background" fill="#ECEFF1"></path>
                </g>
            </g>
        </g>
    </g>
</svg>